<svg id="Слой_1" data-name="Слой 1" xmlns="http://www.w3.org/2000/svg" xmlns:xlink="http://www.w3.org/1999/xlink" viewBox="0 0 170.97 125"><defs><clipPath id="clip-path" transform="translate(-2.02 0)"><rect x="2.02" width="170.96" height="125" fill="none"/></clipPath><clipPath id="clip-path-2" transform="translate(-2.02 0)"><polygon points="43.88 34.74 52.87 34.74 73.97 13.64 73.97 4.66 43.88 34.74" fill="none"/></clipPath><linearGradient id="Безымянный_градиент" x1="-375.4" y1="566.51" x2="-374.66" y2="566.51" gradientTransform="translate(21250.22 -31993.76) scale(56.51)" gradientUnits="userSpaceOnUse"><stop offset="0" stop-color="#1a3a62"/><stop offset="0.18" stop-color="#1a3a62"/><stop offset="0.43" stop-color="#1963ab"/><stop offset="1" stop-color="#1963ab"/></linearGradient><clipPath id="clip-path-3" transform="translate(-2.02 0)"><polygon points="68.9 28.39 63.58 33.7 70.62 34.74 122.13 34.74 123.32 34.07 117.03 28.39 68.9 28.39" fill="none"/></clipPath><linearGradient id="Безымянный_градиент_2" x1="-360.88" y1="567.43" x2="-360.14" y2="567.43" gradientTransform="translate(29227.54 -45827.79) scale(80.82)" gradientUnits="userSpaceOnUse"><stop offset="0" stop-color="#dc901b"/><stop offset="0.4" stop-color="#cb4f24"/><stop offset="0.8" stop-color="#cb4f24"/><stop offset="1" stop-color="#a31c26"/></linearGradient><clipPath id="clip-path-4" transform="translate(-2.02 0)"><polygon points="96.38 0 61.64 34.74 70.62 34.74 96.38 8.98 97.46 4.66 96.38 0" fill="none"/></clipPath><linearGradient id="Безымянный_градиент_3" x1="-358.01" y1="572.41" x2="-357.27" y2="572.41" gradientTransform="translate(17412.31 -27727.46) scale(48.47)" gradientUnits="userSpaceOnUse"><stop offset="0" stop-color="#cb4f24"/><stop offset="0.6" stop-color="#cb4f24"/><stop offset="1" stop-color="#dc911b"/></linearGradient></defs><title>gornyi_icon-01111</title><g clip-path="url(#clip-path)"><path d="M31.25,122.47a2.66,2.66,0,0,1-1.07-1.06,3.2,3.2,0,0,1,0-3.06,2.73,2.73,0,0,1,1.07-1.06,3.25,3.25,0,0,1,2.89-.08,2.23,2.23,0,0,1,.94.86l-.58.4a1.93,1.93,0,0,0-.74-.65,2.14,2.14,0,0,0-1-.22,2.38,2.38,0,0,0-1.14.28,2,2,0,0,0-.81.81,2.57,2.57,0,0,0,0,2.38,2.07,2.07,0,0,0,.78.8,2.38,2.38,0,0,0,2.1.07,1.91,1.91,0,0,0,.74-.64l.58.4a2.15,2.15,0,0,1-.94.85,3.25,3.25,0,0,1-2.89-.08" transform="translate(-2.02 0)" fill="#222220"/><path d="M40.72,119.51a1.67,1.67,0,0,1,.58,1.37,1.77,1.77,0,0,1-.62,1.44,2.75,2.75,0,0,1-1.78.48H36.6V117h.79v2h1.66a2.55,2.55,0,0,1,1.67.49m-.63,2.36a1.19,1.19,0,0,0,.41-1,1.1,1.1,0,0,0-.41-1,2.09,2.09,0,0,0-1.22-.32H37.39v2.59h1.48a1.84,1.84,0,0,0,1.22-.33m2.21-4.91h.79v5.83h-.81Z" transform="translate(-2.02 0)" fill="#222220"/><polygon points="48.52 116.96 48.52 122.79 47.73 122.79 47.73 117.66 44.07 117.66 44.07 122.79 43.28 122.79 43.28 116.96 48.52 116.96" fill="#222220"/><path d="M57.73,117l-2.91,6.53a2.8,2.8,0,0,1-.82,1.16,1.85,1.85,0,0,1-1.13.35,2.32,2.32,0,0,1-.78-.13,1.78,1.78,0,0,1-.64-.4l.37-.59a1.52,1.52,0,0,0,1.07.44,1.07,1.07,0,0,0,.68-.22,1.92,1.92,0,0,0,.52-.74l.26-.56L51.74,117h.82l2.22,5L57,117Z" transform="translate(-2.02 0)" fill="#222220"/><path d="M63.37,117v5.83h-.79v-2.42a5.06,5.06,0,0,1-2,.44,2.53,2.53,0,0,1-1.64-.49,1.74,1.74,0,0,1-.59-1.44V117h.79v1.88a1.19,1.19,0,0,0,.42,1,1.87,1.87,0,0,0,1.17.34,4.91,4.91,0,0,0,1.84-.44V117Z" transform="translate(-2.02 0)" fill="#222220"/><polygon points="63.58 116.96 64.37 116.96 64.37 121.59 68.26 116.96 68.96 116.96 68.96 122.79 68.17 122.79 68.17 118.16 64.29 122.79 63.58 122.79 63.58 116.96" fill="#222220"/><path d="M78.33,120.12H73.46a2.05,2.05,0,0,0,.69,1.48,2.32,2.32,0,0,0,1.6.56,2.47,2.47,0,0,0,1-.19,2.22,2.22,0,0,0,.79-.57l.43.51a2.3,2.3,0,0,1-1,.74,3.44,3.44,0,0,1-2.86-.14,2.63,2.63,0,0,1-1.08-1.06,2.91,2.91,0,0,1-.39-1.53,3.15,3.15,0,0,1,.37-1.53,2.64,2.64,0,0,1,1-1,2.83,2.83,0,0,1,1.47-.38,2.75,2.75,0,0,1,1.48.38,2.59,2.59,0,0,1,1,1,3.21,3.21,0,0,1,.37,1.54Zm-4.23-2a2,2,0,0,0-.64,1.4h4.13a2.07,2.07,0,0,0-.65-1.4,2.16,2.16,0,0,0-2.84,0" transform="translate(-2.02 0)" fill="#222220"/><polygon points="87.48 116.96 87.48 122.79 86.77 122.79 86.77 118.18 84.4 122.08 84.05 122.08 81.69 118.17 81.69 122.79 80.96 122.79 80.96 116.96 81.76 116.96 84.24 121.16 86.75 116.96 87.48 116.96" fill="#222220"/><path d="M95.5,117.52a2.17,2.17,0,0,1,.61,1.69v3.62h-.74v-1a1.82,1.82,0,0,1-.74.74,2.71,2.71,0,0,1-1.22.26,2.42,2.42,0,0,1-1.56-.47,1.61,1.61,0,0,1,0-2.43,2.64,2.64,0,0,1,1.7-.45h1.86v-.35A1.51,1.51,0,0,0,95,118a1.79,1.79,0,0,0-1.24-.39,3,3,0,0,0-1.06.19,2.44,2.44,0,0,0-.87.5l-.36-.59a3.09,3.09,0,0,1,1.07-.58,4.11,4.11,0,0,1,1.3-.21,2.54,2.54,0,0,1,1.76.57M94.67,122a1.81,1.81,0,0,0,.74-.88v-1H93.58c-1,0-1.48.35-1.48,1a1,1,0,0,0,.38.8,1.75,1.75,0,0,0,1.09.3,2.08,2.08,0,0,0,1.14-.31" transform="translate(-2.02 0)" fill="#222220"/><polygon points="100.29 117.66 98.08 117.66 98.08 122.79 97.3 122.79 97.3 117.66 95.09 117.66 95.09 116.96 100.29 116.96 100.29 117.66" fill="#222220"/><path d="M108.28,120.12h-4.87a2.06,2.06,0,0,0,.73,1.48,2.36,2.36,0,0,0,1.6.56,2.47,2.47,0,0,0,1-.19,2.1,2.1,0,0,0,.78-.57l.45.51a2.52,2.52,0,0,1-1,.74,3.47,3.47,0,0,1-2.87-.14,2.78,2.78,0,0,1-1.09-1.06,3,3,0,0,1-.38-1.53,3.15,3.15,0,0,1,.37-1.53,2.71,2.71,0,0,1,1-1,3,3,0,0,1,2.91,0,2.73,2.73,0,0,1,1,1,3.33,3.33,0,0,1,.37,1.54Zm-4.22-2a2.09,2.09,0,0,0-.65,1.4h4.13a2.07,2.07,0,0,0-.65-1.4,2.15,2.15,0,0,0-2.83,0" transform="translate(-2.02 0)" fill="#222220"/><path d="M114.53,117.28a2.69,2.69,0,0,1,1,1,3.39,3.39,0,0,1,0,3.1,2.64,2.64,0,0,1-1,1,2.94,2.94,0,0,1-1.48.38,2.86,2.86,0,0,1-1.28-.3,2.4,2.4,0,0,1-.94-.85v3.21h-.79v-8h.74v1.15a2.51,2.51,0,0,1,.94-.89,2.84,2.84,0,0,1,1.31-.31,3.15,3.15,0,0,1,1.48.37m-.43,4.59a2,2,0,0,0,.78-.81,2.65,2.65,0,0,0,0-2.36,2,2,0,0,0-.78-.81,2.27,2.27,0,0,0-1.11-.29,2.17,2.17,0,0,0-1.11.29,1.93,1.93,0,0,0-.74.81,2.59,2.59,0,0,0,0,2.36,2.06,2.06,0,0,0,.74.81,2.34,2.34,0,0,0,2.22,0" transform="translate(-2.02 0)" fill="#222220"/><polygon points="115.62 116.96 116.41 116.96 116.41 121.59 120.3 116.96 121 116.96 121 122.79 120.21 122.79 120.21 118.16 116.33 122.79 115.62 122.79 115.62 116.96" fill="#222220"/><path d="M129,117.52a2.25,2.25,0,0,1,.61,1.69v3.62h-.74v-1a1.88,1.88,0,0,1-.74.74,2.72,2.72,0,0,1-1.23.26,2.41,2.41,0,0,1-1.55-.47,1.48,1.48,0,0,1-.58-1.23,1.52,1.52,0,0,1,.54-1.2,2.66,2.66,0,0,1,1.71-.45h1.86v-.35a1.48,1.48,0,0,0-.43-1.16,1.75,1.75,0,0,0-1.23-.39,3,3,0,0,0-1.06.19,2.48,2.48,0,0,0-.88.5l-.35-.59a3,3,0,0,1,1.06-.58,4.18,4.18,0,0,1,1.31-.21,2.52,2.52,0,0,1,1.75.57M128.2,122a1.92,1.92,0,0,0,.74-.88v-1H127.1c-1,0-1.48.35-1.48,1a1,1,0,0,0,.39.8,1.74,1.74,0,0,0,1.08.3,2.09,2.09,0,0,0,1.15-.31" transform="translate(-2.02 0)" fill="#222220"/><path d="M136.54,117v5.83h-.79v-5.13h-2.83l-.07,1.44a10.61,10.61,0,0,1-.43,2.8,1.21,1.21,0,0,1-1.19,1,1.77,1.77,0,0,1-.56-.09l.05-.68a1.51,1.51,0,0,0,.28.05.75.75,0,0,0,.69-.42,2.77,2.77,0,0,0,.31-1c.05-.41.1-1,.14-1.64l.09-2.08Z" transform="translate(-2.02 0)" fill="#222220"/><path d="M142.87,119.51a1.66,1.66,0,0,1,.57,1.37,1.71,1.71,0,0,1-.62,1.44,2.7,2.7,0,0,1-1.77.48h-2.31V117h.76v2h1.66a2.6,2.6,0,0,1,1.68.49m-.64,2.36a1.21,1.21,0,0,0,.42-1,1.12,1.12,0,0,0-.42-1,2,2,0,0,0-1.22-.32H139.5v2.59H141a1.83,1.83,0,0,0,1.22-.33m2.22-4.91h.78v5.83h-.78Z" transform="translate(-2.02 0)" fill="#222220"/><polygon points="0 79 16.82 79 16.82 83.04 4.53 83.04 4.53 105.59 0 105.59 0 79" fill="#222220"/><path d="M23.9,92.29c0-7.82,5.47-13.6,13.44-13.6,7.68,0,13.41,5.47,13.41,13.6s-5.73,13.6-13.41,13.6c-8,0-13.44-5.77-13.44-13.6m22.14,0c0-5.47-3.79-9.36-8.7-9.36-5.17,0-8.76,4.15-8.76,9.36s3.56,9.36,8.76,9.36c4.91,0,8.7-3.93,8.7-9.36" transform="translate(-2.02 0)" fill="#222220"/><path d="M58.88,79h9.66c6.37,0,9.11,3.69,9.11,8.61,0,5.77-3.9,8.5-9.61,8.5H63.41v9.48H58.88Zm8.66,13c3.69,0,5.38-1.87,5.38-4.5,0-2.8-1.79-4.49-5-4.49H63.43v9Z" transform="translate(-2.02 0)" fill="#222220"/><polygon points="83.23 79 87.76 79 87.76 90.87 99.75 90.87 99.75 79 104.28 79 104.28 105.59 99.75 105.59 99.75 94.91 87.76 94.91 87.76 105.59 83.23 105.59 83.23 79" fill="#222220"/><path d="M115.63,79h4.53v9.77h4.35c7.23,0,9.51,3.49,9.51,8.13,0,5.58-2.73,8.69-9.55,8.69H115.6Zm8.87,22.54c3.33,0,4.87-1.54,4.87-4.38,0-3.07-1.84-4.34-4.83-4.34h-4.35v8.72ZM137.69,79h4.53v26.61h-4.53Z" transform="translate(-2.02 0)" fill="#222220"/><path d="M151.52,79h4.53V98.06h.07L169.06,79H173v26.61h-4.53V86.79h-.08l-12.81,18.79h-4ZM156,71.69l3.69-.36c.12,1.08.83,2.88,2.74,2.88s2.62-1.8,2.73-2.88l3.7.36c-.74,3.94-3.52,5.18-6.4,5.18s-5.66-1.21-6.41-5.18" transform="translate(-2.02 0)" fill="#222220"/><polygon points="71.95 4.66 96.6 29.31 87.63 29.33 71.95 13.64 71.26 9.61 71.95 4.66" fill="#1a3b62"/><polygon points="46.95 34.14 50.84 34.74 59.62 34.74 63.22 33.93 68.45 28.39 52.7 28.39 46.95 34.14" fill="#1a3b62"/></g><g clip-path="url(#clip-path-2)"><rect x="43.51" y="4.29" width="30.81" height="30.81" transform="translate(35.75 78.12) rotate(-88.59)" fill="url(#Безымянный_градиент)"/></g><g clip-path="url(#clip-path-3)"><rect x="61.56" y="28.39" width="59.74" height="6.35" fill="url(#Безымянный_градиент_2)"/></g><g clip-path="url(#clip-path-4)"><rect x="59.61" width="35.83" height="34.74" fill="url(#Безымянный_градиент_3)"/></g><g clip-path="url(#clip-path)"><polygon points="120.11 34.74 94.36 8.98 94.36 0 129.09 34.74 120.11 34.74" fill="#cb4f24"/><polygon points="64.3 37.5 46.06 37.5 49.86 40.53 67.73 40.53 64.3 37.5" fill="#cfe0f5"/><polygon points="71.16 43.57 53.67 43.57 57.47 46.6 74.58 46.6 71.16 43.57" fill="#cfe0f5"/><polygon points="72.69 58.74 76.5 55.72 68.88 55.72 72.69 58.74" fill="#cfe0f5"/><polygon points="78.02 49.64 61.27 49.64 65.08 52.68 81.44 52.68 78.02 49.64" fill="#cfe0f5"/><polygon points="83.32 55.72 86.75 58.74 100.62 58.74 104.13 55.72 83.32 55.72" fill="#98bae4"/><polygon points="76.46 49.64 79.89 52.68 107.64 52.68 111.14 49.64 76.46 49.64" fill="#98bae4"/><polygon points="97.12 61.78 90.19 61.78 93.62 64.81 97.12 61.78" fill="#98bae4"/><polygon points="69.6 43.57 73.03 46.6 114.65 46.6 118.15 43.57 69.6 43.57" fill="#98bae4"/><polygon points="62.74 37.5 66.17 40.53 121.66 40.53 125.16 37.5 62.74 37.5" fill="#98bae4"/></g></svg>